<svg width="42" height="42" viewBox="0 0 42 42" fill="none" xmlns="http://www.w3.org/2000/svg">
<g id="&#229;&#155;&#190;&#230;&#160;&#135;/&#229;&#133;&#179;&#233;&#151;&#173;">
<g id="&#229;&#155;&#190;&#230;&#160;&#135;/&#229;&#133;&#179;&#233;&#151;&#173;_2" clip-path="url(#clip0_775_30100)">
<path id="Vector" d="M22.75 5.25H19.25V22.75H22.75V5.25ZM31.2025 9.0475L28.7175 11.5325C31.4825 13.755 33.25 17.1675 33.25 21C33.25 27.7725 27.7725 33.25 21 33.25C14.2275 33.25 8.75 27.7725 8.75 21C8.75 17.1675 10.5175 13.755 13.265 11.515L10.7975 9.0475C7.4025 11.935 5.25 16.205 5.25 21C5.25 29.6975 12.3025 36.75 21 36.75C29.6975 36.75 36.75 29.6975 36.75 21C36.75 16.205 34.5975 11.935 31.2025 9.0475Z" fill="#2E3747"/>
</g>
</g>
<defs>
<clipPath id="clip0_775_30100">
<rect width="42" height="42" fill="white"/>
</clipPath>
</defs>
</svg>
