<svg width="42" height="42" viewBox="0 0 42 42" fill="none" xmlns="http://www.w3.org/2000/svg">
<g id="&#229;&#155;&#190;&#230;&#160;&#135;/&#230;&#156;&#128;&#229;&#164;&#167;&#229;&#140;&#150;">
<g id="&#229;&#155;&#190;&#230;&#160;&#135;/&#230;&#156;&#128;&#229;&#164;&#167;&#229;&#140;&#150;_2" clip-path="url(#clip0_775_30112)">
<path id="Vector" d="M24.5 5.25V8.75H30.7825L21.9625 17.57L24.43 20.0025L33.25 11.2175V17.5H36.75V5.25H24.5Z" fill="#2E3747"/>
<path id="Vector_2" d="M17.5525 36.6625V33.1625H11.27L20.0025 24.43L17.5525 21.9975L8.80249 30.695V24.4125H5.30249V36.6625H17.5525Z" fill="#2E3747"/>
<path id="Vector_3" d="M33.25 21V33.25H21V36.75H33.25C34.1783 36.75 35.0685 36.3813 35.7249 35.7249C36.3813 35.0685 36.75 34.1783 36.75 33.25V21H33.25Z" fill="#2E3747"/>
<path id="Vector_4" d="M8.75 21V8.75H21V5.25H8.75C7.82174 5.25 6.9315 5.61875 6.27513 6.27513C5.61875 6.9315 5.25 7.82174 5.25 8.75V21H8.75Z" fill="#2E3747"/>
</g>
</g>
<defs>
<clipPath id="clip0_775_30112">
<rect width="42" height="42" fill="white"/>
</clipPath>
</defs>
</svg>
