<svg width="42" height="42" viewBox="0 0 42 42" fill="none" xmlns="http://www.w3.org/2000/svg">
<g id="&#229;&#155;&#190;&#230;&#160;&#135;/&#230;&#156;&#128;&#229;&#176;&#143;&#229;&#140;&#150;">
<g id="&#229;&#155;&#190;&#230;&#160;&#135;/&#230;&#156;&#128;&#229;&#176;&#143;&#229;&#140;&#150;_2" clip-path="url(#clip0_775_30106)">
<path id="Vector" d="M8.75 8.75L33.25 8.75L33.25 33.25L21 33.25L21 36.75L33.25 36.75C35.1925 36.75 36.75 35.175 36.75 33.25L36.75 8.75C36.75 6.825 35.1925 5.25 33.25 5.25L8.75 5.25C6.825 5.25 5.25 6.825 5.25 8.75L5.25 21L8.75 21L8.75 8.75ZM17.5 36.75L17.5 33.25L11.2175 33.25L28.42 16.0475L25.9525 13.58L8.75 30.7825L8.75 24.5L5.25 24.5L5.25 36.75L17.5 36.75Z" fill="#2E3747"/>
</g>
</g>
<defs>
<clipPath id="clip0_775_30106">
<rect width="42" height="42" fill="white" transform="translate(42 42) rotate(-180)"/>
</clipPath>
</defs>
</svg>
